<?xml version="1.0" standalone="no"?>
<!DOCTYPE svg PUBLIC "-//W3C//DTD SVG 20010904//EN"
 "http://www.w3.org/TR/2001/REC-SVG-20010904/DTD/svg10.dtd">
<svg version="1.0" xmlns="http://www.w3.org/2000/svg"
 width="2554.000000pt" height="9462.000000pt" viewBox="0 0 2554.000000 9462.000000"
 preserveAspectRatio="xMidYMid meet">

<g transform="translate(0.000000,9462.000000) scale(0.100000,-0.100000)"
fill="#000000" stroke="none">
<path d="M870 91625 l0 -2665 78 0 c120 0 122 3 152 310 40 406 94 626 215
875 128 264 288 446 535 608 391 256 867 377 1743 442 328 24 1363 34 5082 46
4975 16 11608 0 11710 -30 29 -8 26 -10 -75 -59 -104 -49 -414 -162 -2440
-889 -4575 -1641 -12107 -4313 -13195 -4681 -422 -143 -1107 -266 -1745 -312
-278 -20 -401 -44 -420 -80 -14 -27 12 -53 110 -110 295 -171 639 -426 990
-734 167 -147 267 -243 413 -401 763 -822 1428 -1947 1814 -3070 112 -326 199
-533 229 -542 29 -9 56 126 89 437 20 196 61 453 89 564 116 453 485 1026 662
1026 47 0 356 -108 2317 -809 4221 -1509 11542 -4152 11947 -4312 l85 -34
-155 -6 c-510 -20 -4624 -31 -9635 -26 -5138 6 -7398 16 -7890 37 -649 27
-1264 179 -1640 405 -517 311 -765 780 -835 1585 -15 173 -29 246 -52 275 -18
23 -26 25 -99 25 l-79 0 0 -4145 0 -4145 78 0 c42 0 82 4 89 8 28 17 44 90 63
286 42 425 99 664 220 913 72 150 124 232 222 348 296 351 790 573 1520 684
294 45 392 51 1035 61 2416 39 14086 39 16478 0 525 -9 659 -14 805 -31 647
-76 1088 -209 1420 -430 122 -81 316 -273 392 -389 200 -302 321 -733 346
-1234 10 -189 11 -190 163 -160 l26 5 7 1002 c3 551 9 1831 12 2844 l7 1842
-59 26 c-101 45 -2495 908 -7684 2770 -4024 1444 -7754 2795 -8213 2975 -60
23 -105 46 -100 50 29 28 1560 576 4053 1452 1709 600 2707 948 8175 2851
l3800 1323 6 719 c3 396 10 1702 14 2903 l7 2182 -74 0 c-121 0 -127 -10 -153
-275 -30 -305 -78 -541 -148 -722 -210 -543 -617 -871 -1340 -1078 -67 -19
-235 -60 -372 -91 l-250 -56 -4020 -10 c-4822 -11 -13327 -4 -13725 10 -357
14 -657 51 -960 118 -812 182 -1278 556 -1478 1186 -80 250 -129 515 -142 772
-12 230 -10 226 -130 226 l-90 0 0 -2665z"/>
<path d="M13800 71088 c-14 -5 -37 -21 -52 -35 -36 -34 -36 -69 -3 -188 84
-298 157 -624 197 -875 30 -195 33 -561 5 -683 -37 -156 -130 -291 -260 -377
-34 -22 -133 -77 -220 -121 l-157 -80 -4368 -6 c-4326 -6 -5322 -1 -5632 27
-838 77 -1437 313 -1766 698 -257 301 -394 687 -444 1252 -15 169 -29 246 -52
275 -18 23 -26 25 -99 25 l-79 0 0 -4000 0 -4000 83 0 c54 0 90 5 101 13 24
18 35 84 35 219 2 365 131 809 316 1095 256 393 660 638 1266 768 287 61 630
102 969 115 525 20 2584 31 7725 41 4413 8 5749 14 6473 28 20 1 32 6 32 15 0
19 -151 162 -425 401 -265 231 -753 711 -975 960 -752 841 -1408 1800 -1904
2784 -268 532 -376 785 -632 1482 -56 151 -84 186 -134 167z"/>
<path d="M22850 69464 c-344 -39 -534 -91 -785 -214 -359 -176 -616 -409 -855
-777 -202 -310 -274 -572 -287 -1048 -8 -303 16 -506 89 -731 47 -148 183
-409 279 -538 298 -401 839 -757 1263 -831 140 -24 418 -35 618 -25 268 14
351 31 576 121 480 192 827 486 1072 911 262 452 343 1040 215 1548 -90 359
-265 674 -519 938 -332 345 -738 558 -1197 627 -100 15 -397 27 -469 19z"/>
<path d="M13782 62871 c-70 -51 -68 -70 38 -501 112 -454 150 -696 150 -960 0
-352 -89 -570 -282 -693 -29 -19 -126 -71 -215 -116 l-163 -81 -3867 0 c-3911
1 -5864 10 -6183 30 -215 13 -329 30 -529 76 -805 187 -1264 535 -1484 1125
-72 193 -115 401 -141 684 -21 228 -34 300 -58 330 -18 23 -26 25 -99 25 l-79
0 0 -4000 0 -4000 83 0 c54 0 90 5 101 13 24 18 35 84 35 219 2 296 86 648
221 923 102 210 217 361 371 491 347 294 798 453 1509 534 521 58 1038 64
5505 57 l3740 -6 255 -75 c349 -102 455 -140 641 -230 326 -156 566 -357 744
-621 68 -102 178 -332 224 -472 146 -438 145 -895 -1 -1393 -99 -340 -341
-832 -561 -1145 -135 -192 -236 -313 -491 -590 -136 -147 -251 -287 -276 -334
-11 -22 -8 -27 51 -84 90 -85 234 -208 449 -382 590 -476 1320 -1103 2090
-1795 674 -605 769 -690 900 -801 161 -136 225 -184 275 -205 34 -14 39 -14
56 2 24 22 24 76 0 129 -10 22 -54 99 -98 170 -457 743 -576 1431 -386 2230
101 428 539 1361 1086 2315 119 208 227 417 250 482 l16 47 -37 30 c-53 41
-201 133 -397 246 -705 406 -1565 1005 -2045 1425 -406 356 -1010 966 -1010
1020 0 5 4 11 9 14 30 19 515 28 1881 36 1638 10 1810 15 1810 55 0 24 -98
121 -232 232 -442 364 -934 855 -1419 1418 -651 756 -1292 1734 -1724 2630
-174 359 -265 574 -477 1125 -77 201 -147 373 -156 383 -21 23 -33 22 -80 -12z"/>
<path d="M12335 50729 c-111 -11 -263 -49 -372 -94 -434 -176 -764 -601 -849
-1090 -22 -125 -14 -404 15 -530 118 -508 428 -968 796 -1179 117 -66 228
-103 354 -115 63 -7 436 -11 968 -11 l864 0 182 -125 c186 -127 304 -227 438
-371 421 -452 832 -1214 953 -1764 86 -393 99 -1061 30 -1520 -66 -440 -278
-920 -565 -1280 -221 -277 -447 -461 -762 -621 l-138 -70 -1877 11 c-1032 6
-1880 14 -1884 18 -8 8 -239 431 -655 1202 -168 311 -375 691 -461 845 -902
1625 -2131 3630 -2634 4297 -344 457 -1086 1219 -1449 1488 -282 209 -649 397
-949 485 -274 81 -428 100 -795 100 -311 -1 -446 -11 -705 -56 -672 -116
-1213 -409 -1709 -925 -489 -508 -711 -991 -795 -1724 -85 -741 -25 -1451 179
-2125 251 -828 784 -1678 1499 -2390 375 -373 846 -766 1251 -1043 156 -106
193 -138 179 -151 -16 -17 -749 -31 -1619 -31 -779 0 -1220 -11 -1313 -30 -41
-9 -52 -16 -52 -31 0 -27 140 -298 300 -579 787 -1385 1423 -2866 1814 -4222
25 -86 72 -260 106 -387 64 -248 118 -424 156 -508 22 -51 24 -53 61 -52 21 1
51 4 68 8 50 11 56 51 65 456 9 381 21 496 65 662 142 533 577 943 1181 1113
277 78 454 94 1179 110 600 13 4128 13 6325 -1 3073 -18 3611 5 3941 172 110
55 306 235 441 404 164 206 559 890 862 1495 179 358 257 568 320 866 47 226
60 387 60 769 1 345 0 352 -27 480 -83 389 -271 1005 -503 1646 -248 688 -512
1292 -931 2129 -400 801 -832 1588 -1399 2552 -357 606 -463 747 -830 1108
-196 192 -297 277 -447 374 -264 172 -632 265 -932 235z m-7084 -3179 c187
-12 276 -30 419 -87 397 -156 750 -410 1170 -839 628 -643 1138 -1385 2035
-2959 508 -892 641 -1116 872 -1465 l142 -215 -1062 -8 c-1335 -10 -4424 -2
-4607 12 -146 11 -198 24 -320 86 -521 262 -1055 1016 -1263 1785 -58 211
-112 551 -143 890 -21 229 -24 718 -6 865 93 731 568 1363 1302 1731 255 128
439 187 631 203 145 12 655 12 830 1z"/>
<path d="M8190 36643 c-551 -20 -845 -54 -1329 -154 -1452 -301 -2698 -861
-3776 -1698 -766 -595 -1378 -1376 -1905 -2431 -471 -942 -736 -1936 -801
-3009 -13 -217 -7 -866 10 -1046 97 -1012 320 -1842 706 -2623 337 -682 780
-1289 1352 -1853 361 -355 680 -613 1105 -893 486 -319 934 -540 1555 -767
l247 -91 24 29 c27 33 122 219 122 238 0 16 -81 77 -330 251 -202 140 -373
274 -526 410 -441 391 -818 813 -1041 1164 -212 335 -469 852 -607 1221 -165
446 -247 1137 -233 1979 10 603 49 930 164 1385 321 1277 1086 2344 2213 3090
970 642 2215 1051 3525 1159 455 38 1228 45 1700 16 691 -43 1276 -147 1925
-344 991 -300 1832 -740 2545 -1332 170 -141 522 -494 657 -659 508 -622 808
-1276 918 -2000 27 -176 38 -518 21 -661 -88 -747 -549 -1346 -1342 -1744
-465 -234 -1082 -354 -1734 -337 -322 8 -493 30 -881 112 l-205 43 -141 -74
c-193 -101 -279 -166 -444 -329 -283 -282 -421 -522 -493 -860 -82 -380 -33
-809 130 -1140 106 -215 400 -551 637 -730 387 -292 1065 -374 1727 -211 607
151 1076 432 1580 947 805 823 1363 2054 1610 3549 96 582 120 992 112 1862
-6 661 -19 811 -102 1234 -397 2010 -1723 3882 -3560 5026 -869 541 -1879 933
-2967 1152 -364 73 -570 96 -1033 116 -211 9 -927 11 -1135 3z"/>
<path d="M21433 22966 c-72 -24 -73 -7 21 -382 144 -577 179 -795 180 -1114 0
-156 -4 -222 -16 -278 -44 -192 -205 -371 -434 -483 -97 -48 -107 -50 -220
-59 -355 -29 -1292 -33 -9434 -37 l-8315 -4 -297 65 c-426 94 -611 153 -853
271 -430 209 -698 514 -844 960 -67 204 -95 367 -135 785 -7 80 -21 162 -30
184 l-16 39 -64 -5 c-35 -3 -69 -9 -75 -12 -8 -5 -11 -1098 -11 -4002 0 -3417
2 -3995 14 -4000 8 -3 42 -6 77 -7 91 -3 86 -21 134 428 90 845 457 1313 1238
1581 154 52 457 129 572 144 385 50 1443 56 11070 70 8357 13 11188 26 11483
56 38 4 62 11 62 19 0 15 -120 133 -185 181 -292 218 -1099 1025 -1543 1544
-563 657 -1235 1711 -1688 2645 -169 350 -280 608 -449 1050 -100 260 -150
356 -192 367 -10 3 -32 0 -50 -6z"/>
<path d="M8440 15404 c-802 -42 -1094 -78 -1690 -209 -2702 -597 -4762 -2144
-5726 -4300 -636 -1424 -796 -2953 -523 -5004 116 -874 275 -1419 593 -2036
474 -918 1120 -1685 1926 -2285 555 -413 1192 -746 1875 -979 351 -121 600
-182 678 -167 49 9 89 69 95 142 4 48 2 54 -32 92 -40 44 -118 88 -271 152
-685 289 -1337 858 -1832 1600 -232 347 -432 748 -562 1125 -451 1306 -372
3049 200 4388 279 653 703 1268 1221 1772 924 900 2172 1520 3690 1834 516
107 757 130 1583 152 628 16 1173 1 1471 -41 76 -11 142 -20 147 -20 4 0 7
-2466 7 -5480 l0 -5480 26 0 c108 0 631 77 889 130 1264 262 2131 714 2961
1544 474 475 837 986 1084 1525 334 730 626 1792 704 2561 36 347 51 954 37
1435 -16 519 -33 737 -86 1080 -271 1742 -881 2956 -2071 4125 -1247 1225
-2852 2006 -4711 2294 -255 40 -414 48 -1023 51 -327 1 -624 1 -660 -1z m3620
-3903 c529 -151 909 -300 1374 -539 818 -421 1544 -995 2098 -1657 411 -493
672 -986 753 -1429 62 -339 38 -1119 -46 -1512 -39 -184 -143 -456 -261 -687
-220 -430 -538 -785 -944 -1058 -328 -220 -727 -396 -1059 -468 -237 -52 -570
-72 -885 -52 -422 26 -568 77 -859 304 -153 120 -216 218 -261 410 -107 453
-132 1195 -170 4962 -5 550 -12 1182 -16 1404 -6 390 -6 403 12 398 11 -4 129
-37 264 -76z"/>
</g>
</svg>
