<?xml version="1.0" standalone="no"?>
<!DOCTYPE svg PUBLIC "-//W3C//DTD SVG 20010904//EN"
 "http://www.w3.org/TR/2001/REC-SVG-20010904/DTD/svg10.dtd">
<svg version="1.0" xmlns="http://www.w3.org/2000/svg"
 width="9388.000000pt" height="5108.000000pt" viewBox="0 0 9388.000000 5108.000000"
 preserveAspectRatio="xMidYMid meet">

<g transform="translate(0.000000,5108.000000) scale(0.100000,-0.100000)"
fill="#000000" stroke="none">
<path d="M3240 51060 c-146 -4 -266 -7 -267 -8 -9 -11 -23 -73 -23 -102 0 -65
19 -73 193 -82 240 -12 449 -46 696 -114 493 -135 814 -395 1032 -833 103
-208 173 -425 233 -723 50 -245 86 -522 96 -743 26 -556 35 -2700 35 -8790 0
-6092 -9 -8235 -35 -8790 -18 -394 -95 -829 -206 -1165 -56 -170 -192 -444
-281 -570 -140 -194 -342 -367 -558 -474 -262 -131 -508 -192 -940 -235 -300
-30 -305 -33 -305 -153 l0 -78 5268 0 c6915 1 9601 14 9762 48 l35 8 18 134
c94 727 876 7617 981 8642 31 304 24 338 -64 338 -27 0 -43 -7 -62 -27 -31
-34 -44 -71 -103 -288 -210 -770 -613 -1978 -903 -2700 -787 -1966 -1714
-3331 -2847 -4191 -668 -507 -1449 -867 -2315 -1067 -421 -98 -609 -109 -2105
-127 -467 -5 -1042 -13 -1277 -16 l-428 -7 0 6774 c0 6716 11 11304 30 12324
8 472 12 551 34 725 159 1236 547 1786 1412 2004 218 55 405 82 638 94 189 10
190 11 160 163 l-5 26 -1192 6 c-1417 8 -6329 6 -6707 -3z"/>
<path d="M82709 45177 c-39 -33 -138 -145 -257 -292 -330 -404 -810 -886
-1282 -1286 -1043 -884 -2321 -1657 -3521 -2132 -118 -46 -284 -110 -369 -141
-186 -67 -276 -112 -303 -147 -17 -23 -18 -31 -8 -62 25 -74 74 -71 476 29
476 118 677 148 1010 148 311 1 398 -19 535 -123 107 -80 208 -235 273 -416
71 -200 69 -92 74 -4570 6 -5495 3 -5640 -142 -6232 -174 -707 -562 -1188
-1110 -1376 -243 -83 -557 -143 -828 -157 -97 -5 -187 -15 -198 -21 -20 -10
-21 -17 -15 -86 3 -41 8 -79 12 -84 8 -13 7991 -12 7999 1 4 6 9 44 12 84 5
68 4 75 -16 85 -12 7 -103 16 -204 21 -465 23 -915 159 -1203 363 -541 384
-777 1116 -824 2552 -40 1202 -39 7067 0 7965 10 225 35 433 85 703 87 472
296 889 594 1188 286 286 637 458 1066 525 151 23 466 23 635 0 710 -96 1421
-466 2084 -1082 278 -259 380 -344 409 -344 22 0 136 126 320 355 542 673
1251 1495 2075 2407 701 776 834 929 874 1005 20 37 21 44 8 68 -32 60 -75 47
-311 -96 -374 -226 -585 -321 -893 -399 -256 -65 -344 -75 -656 -75 -240 1
-292 4 -409 24 -617 106 -1241 376 -2491 1081 -392 221 -626 344 -640 335 -20
-12 -161 -235 -256 -405 -311 -557 -768 -1243 -1115 -1675 -469 -583 -1316
-1461 -1364 -1413 -33 33 -45 394 -45 1413 0 863 -15 2018 -28 2189 -4 49 -11
91 -17 92 -5 2 -22 -7 -36 -19z"/>
<path d="M41155 44560 c-289 -10 -457 -25 -640 -56 -551 -92 -1178 -271 -1630
-464 -381 -163 -788 -408 -1118 -674 -808 -650 -1394 -1544 -1636 -2497 -127
-500 -174 -1263 -105 -1728 97 -660 368 -1298 785 -1850 148 -197 246 -309
449 -512 510 -511 980 -833 1853 -1270 383 -192 528 -255 1022 -446 132 -51
255 -109 255 -121 0 -55 -619 -907 -1199 -1652 -1054 -1354 -1959 -2399 -3261
-3765 -515 -540 -829 -889 -869 -963 -15 -28 13 -62 50 -62 45 0 82 19 240
122 672 443 1288 611 1817 497 297 -64 498 -167 1372 -701 572 -349 1067 -589
1508 -732 609 -198 1314 -277 2332 -263 826 12 1377 93 2105 309 1134 337
2024 837 2671 1501 497 509 835 1085 1037 1767 90 303 107 448 107 925 0 478
-21 676 -100 953 -238 840 -552 1347 -1285 2077 -713 709 -1391 1181 -2450
1705 -385 190 -680 326 -965 442 -275 113 -403 167 -419 177 -12 8 -8 21 23
72 181 304 1443 1960 2250 2954 759 935 1360 1634 2455 2860 211 237 429 482
483 545 96 112 178 223 178 242 0 5 -12 20 -27 34 -24 22 -35 25 -71 21 -44
-5 -69 -19 -292 -161 -196 -125 -470 -250 -702 -320 -331 -100 -784 -146
-1163 -117 -426 32 -613 96 -1509 516 -554 259 -938 405 -1360 515 -83 22
-190 46 -237 54 -112 20 -384 43 -639 56 -284 14 -1050 20 -1315 10z m1123
-555 c429 -68 938 -347 1259 -689 228 -243 430 -578 531 -882 101 -301 155
-881 122 -1300 -56 -705 -438 -1596 -1123 -2624 -237 -355 -518 -736 -636
-861 l-68 -74 -89 34 c-199 75 -692 311 -934 449 -219 123 -479 302 -692 474
-700 566 -1169 1308 -1322 2097 -51 258 -60 359 -60 646 0 289 11 406 60 639
176 832 682 1513 1397 1877 245 125 426 186 631 214 170 22 180 23 511 20 229
-2 337 -7 413 -20z m-1021 -9354 c627 -222 1067 -426 1472 -683 653 -415 1237
-1013 1555 -1593 128 -233 273 -597 336 -841 46 -178 52 -280 47 -779 -5 -489
-6 -500 -68 -700 -167 -539 -472 -1006 -879 -1347 -211 -178 -509 -352 -785
-461 -371 -147 -688 -196 -1165 -184 -454 12 -719 66 -1039 210 -535 242 -962
648 -1225 1165 -205 403 -266 700 -266 1285 0 383 18 544 92 842 132 530 384
1112 735 1694 345 573 971 1441 1038 1441 7 0 75 -22 152 -49z"/>
<path d="M54275 44559 c-287 -7 -414 -18 -615 -50 -1007 -161 -1879 -498
-2582 -1000 -386 -276 -778 -656 -1055 -1025 -516 -684 -834 -1532 -904 -2408
-15 -191 -7 -634 16 -816 154 -1260 795 -2254 2015 -3124 552 -394 1152 -704
1995 -1031 275 -107 355 -144 355 -165 0 -106 -1155 -1636 -2090 -2769 -759
-920 -1333 -1563 -2380 -2666 -910 -960 -911 -960 -845 -985 55 -21 149 15
320 122 441 276 906 468 1230 507 481 58 869 -80 1745 -624 446 -277 747 -445
1030 -576 846 -391 1594 -528 2868 -529 643 0 1017 36 1577 150 2097 430 3636
1543 4238 3065 181 457 245 828 234 1350 -8 403 -56 708 -173 1092 -309 1019
-1162 2030 -2425 2873 -634 423 -1302 771 -2162 1126 -286 119 -477 204 -477
214 0 55 699 1005 1454 1975 958 1231 2127 2618 3421 4059 488 544 544 625
474 678 -40 30 -67 19 -240 -93 -410 -266 -849 -428 -1339 -496 -175 -24 -550
-24 -715 0 -434 64 -610 126 -1350 477 -1020 484 -1407 600 -2166 649 -140 9
-313 14 -979 24 -113 2 -326 0 -475 -4z m1105 -553 c366 -57 756 -241 1070
-504 445 -372 760 -943 845 -1532 22 -152 31 -542 16 -729 -40 -498 -119 -810
-336 -1316 -198 -462 -379 -792 -687 -1254 -262 -392 -511 -745 -677 -960 -53
-69 -99 -129 -102 -133 -6 -10 -265 89 -464 177 -399 176 -769 392 -1100 639
-231 172 -533 453 -717 665 -494 569 -775 1214 -839 1924 -17 185 -6 554 21
732 70 459 225 864 468 1220 106 155 178 242 317 381 254 254 540 445 860 572
298 118 460 142 925 137 209 -2 326 -8 400 -19z m-920 -9384 c711 -254 1254
-533 1745 -897 731 -542 1234 -1223 1465 -1986 151 -501 183 -1082 84 -1529
-136 -610 -469 -1134 -977 -1538 -321 -255 -729 -460 -1072 -540 -302 -71
-941 -89 -1292 -37 -294 44 -657 192 -953 390 -380 253 -667 587 -871 1010
-113 235 -184 465 -211 685 -18 143 -18 786 0 935 84 705 331 1365 810 2165
235 392 790 1176 976 1378 50 54 41 56 296 -36z"/>
<path d="M27795 44324 c-261 -7 -564 -25 -715 -45 -516 -65 -1307 -241 -1750
-389 -1389 -464 -2717 -1522 -3625 -2890 -373 -560 -724 -1301 -981 -2065
-240 -715 -351 -1261 -415 -2040 -17 -210 -23 -874 -10 -1120 53 -1004 241
-1960 568 -2895 705 -2014 1995 -3546 3709 -4403 856 -428 1858 -696 2834
-756 1057 -66 2447 55 3435 300 1220 302 2707 1398 3470 2559 405 616 806
1498 965 2123 45 178 48 209 21 236 -22 22 -139 51 -205 51 -37 0 -49 -5 -61
-24 -9 -13 -61 -124 -116 -247 -105 -235 -156 -335 -247 -484 -290 -474 -779
-972 -1322 -1347 -334 -231 -811 -467 -1215 -603 -267 -89 -597 -169 -840
-204 -276 -40 -418 -46 -1000 -46 -688 1 -887 16 -1290 96 -1551 310 -2824
1167 -3699 2488 -505 763 -891 1715 -1095 2702 -145 701 -208 1485 -182 2249
11 296 46 921 57 1008 l5 42 5476 0 5476 0 -6 148 c-15 388 -161 1114 -318
1585 -384 1152 -1136 2146 -2119 2804 -620 414 -1498 772 -2386 972 -497 111
-842 159 -1324 181 -237 10 -890 19 -1095 14z m870 -684 c549 -24 759 -61
1085 -192 399 -161 727 -382 1025 -689 178 -183 294 -335 429 -558 162 -266
313 -633 365 -886 49 -239 55 -328 56 -750 l0 -400 -27 -78 c-52 -146 -202
-426 -302 -561 -227 -310 -581 -341 -4406 -387 -1368 -16 -2527 -17 -2625 -1
-113 18 -114 20 -86 144 89 397 470 1299 765 1813 684 1192 1704 2135 2647
2446 313 103 521 123 1074 99z"/>
<path d="M68875 44309 c-273 -10 -591 -53 -1035 -140 -1285 -253 -2230 -677
-3105 -1395 -296 -242 -723 -653 -954 -919 -729 -836 -1271 -1780 -1630 -2839
-429 -1265 -555 -2556 -385 -3946 205 -1681 833 -3311 1735 -4509 988 -1313
2355 -2219 3954 -2624 398 -101 789 -169 1165 -201 1205 -105 2955 61 3935
375 986 315 2108 1127 2881 2084 393 487 715 1041 967 1665 127 314 350 1046
331 1082 -6 10 -177 48 -216 48 -59 0 -80 -27 -148 -187 -228 -535 -515 -952
-946 -1373 -528 -516 -1167 -903 -1889 -1146 -397 -133 -718 -201 -1115 -236
-200 -18 -1178 -18 -1395 0 -745 61 -1520 288 -2205 644 -524 273 -939 577
-1342 984 -1181 1193 -1917 3002 -2038 5009 -14 229 -14 841 0 1050 14 224 59
791 66 843 l5 42 5479 0 5479 0 -5 33 c-2 17 -13 124 -24 237 -36 360 -91 685
-169 985 -313 1203 -942 2212 -1856 2978 -598 502 -1239 823 -2260 1132 -634
192 -1189 290 -1840 325 -210 11 -1126 11 -1440 -1z m1100 -669 c512 -18 774
-50 991 -121 930 -302 1642 -1024 1947 -1974 105 -327 147 -699 126 -1125 -14
-304 -52 -443 -176 -647 -124 -205 -202 -301 -297 -366 -188 -127 -476 -176
-1226 -207 -1041 -42 -4696 -91 -5350 -72 -362 11 -403 18 -408 64 -14 120
351 1124 557 1537 194 385 494 846 801 1226 397 492 868 935 1299 1223 239
160 655 345 938 418 138 36 160 38 498 52 17 1 152 -3 300 -8z"/>
<path d="M77037 25153 c-36 -38 -83 -90 -103 -118 -218 -292 -1025 -1099
-1544 -1543 -758 -649 -1980 -1402 -3028 -1866 -159 -70 -254 -109 -740 -301
-263 -103 -311 -138 -289 -211 22 -73 8 -74 383 20 577 144 795 179 1114 180
156 0 222 -4 278 -16 192 -44 371 -205 483 -434 48 -97 50 -107 59 -220 29
-355 33 -1292 37 -9434 l4 -8315 -65 -297 c-94 -426 -153 -611 -271 -853 -209
-430 -514 -698 -960 -844 -204 -67 -367 -95 -785 -135 -80 -7 -162 -21 -184
-30 l-39 -16 5 -64 c3 -35 9 -69 12 -75 5 -8 1098 -11 4002 -11 3417 0 3995 2
4000 14 3 8 6 42 7 77 3 91 21 86 -428 134 -845 90 -1313 457 -1581 1238 -52
154 -129 457 -144 572 -50 385 -56 1443 -70 11070 -13 8357 -26 11188 -56
11483 -4 38 -11 62 -19 62 -6 0 -41 -30 -78 -67z"/>
<path d="M26810 24773 c-263 -14 -553 -87 -780 -196 -563 -271 -984 -782
-1135 -1376 -45 -180 -58 -291 -58 -516 0 -360 61 -629 213 -940 176 -359 409
-616 777 -855 310 -202 572 -274 1048 -287 303 -8 506 16 731 89 148 47 409
183 538 279 401 298 757 839 831 1263 35 205 38 662 4 863 -34 209 -171 534
-317 753 -361 544 -932 872 -1602 920 -74 5 -148 9 -165 8 -16 -1 -55 -3 -85
-5z"/>
<path d="M90 23358 c0 -121 10 -127 275 -153 305 -30 541 -78 722 -148 543
-210 871 -617 1078 -1340 19 -67 60 -235 91 -372 l56 -250 10 -4020 c11 -4822
4 -13327 -10 -13725 -14 -357 -51 -657 -118 -960 -182 -812 -556 -1278 -1186
-1478 -250 -80 -515 -129 -772 -142 -230 -12 -226 -10 -226 -130 l0 -90 2665
0 2665 0 0 78 c0 120 -3 122 -310 152 -406 40 -626 94 -875 215 -264 128 -446
288 -608 535 -256 391 -377 867 -442 1743 -24 328 -34 1363 -46 5082 -16 4975
0 11608 30 11710 8 29 10 26 59 -75 49 -104 162 -414 889 -2440 1641 -4575
4313 -12107 4681 -13195 143 -422 266 -1107 312 -1745 20 -278 44 -401 80
-420 27 -14 53 12 110 110 171 295 426 639 734 990 147 167 243 267 401 413
822 763 1947 1428 3070 1814 326 112 533 199 542 229 9 29 -126 56 -437 89
-196 20 -453 61 -564 89 -453 116 -1026 485 -1026 662 0 47 108 356 809 2317
1509 4221 4152 11542 4312 11947 l34 85 6 -155 c20 -510 31 -4624 26 -9635 -6
-5138 -16 -7398 -37 -7890 -27 -649 -179 -1264 -405 -1640 -311 -517 -780
-765 -1585 -835 -173 -15 -246 -29 -275 -52 -23 -18 -25 -26 -25 -99 l0 -79
4145 0 4145 0 0 78 c0 42 -4 82 -8 89 -17 28 -90 44 -286 63 -425 42 -664 99
-913 220 -150 72 -232 124 -348 222 -351 296 -573 790 -684 1520 -45 294 -51
392 -61 1035 -39 2416 -39 14086 0 16478 9 525 14 659 31 805 76 647 209 1088
430 1420 81 122 273 316 389 392 302 200 733 321 1234 346 189 10 190 11 160
163 l-5 26 -1002 7 c-551 3 -1831 9 -2844 12 l-1842 7 -26 -59 c-45 -101 -908
-2495 -2770 -7684 -1444 -4024 -2795 -7754 -2975 -8213 -23 -60 -46 -105 -50
-100 -28 29 -576 1560 -1452 4053 -600 1709 -948 2707 -2851 8175 l-1323 3800
-719 6 c-396 3 -1702 10 -2902 14 l-2183 7 0 -74z"/>
<path d="M28904 17458 c-49 -51 -184 -201 -299 -333 -231 -265 -711 -753 -960
-975 -841 -752 -1800 -1408 -2784 -1904 -508 -256 -843 -400 -1375 -593 -205
-74 -248 -94 -270 -124 -18 -26 -7 -61 32 -101 33 -36 68 -36 187 -3 298 84
624 157 875 197 195 30 561 33 683 5 156 -37 291 -130 377 -260 22 -34 77
-133 121 -220 l80 -157 6 -4368 c6 -4326 1 -5322 -27 -5632 -77 -838 -313
-1437 -698 -1766 -301 -257 -687 -394 -1252 -444 -169 -15 -246 -29 -275 -52
-23 -18 -25 -26 -25 -99 l0 -79 4000 0 4000 0 0 83 c0 54 -5 90 -13 101 -18
24 -84 35 -219 35 -365 2 -809 131 -1095 316 -393 256 -638 660 -768 1266 -61
287 -102 630 -115 969 -20 525 -31 2584 -41 7725 -8 4413 -14 5749 -28 6473
-1 20 -6 32 -15 32 -7 0 -53 -42 -102 -92z"/>
<path d="M37137 17500 c-31 -28 -104 -110 -164 -182 -364 -442 -855 -934
-1418 -1419 -756 -651 -1734 -1292 -2630 -1724 -360 -174 -575 -265 -1125
-477 -201 -77 -374 -149 -385 -159 -19 -19 -19 -20 -1 -54 50 -93 79 -92 511
13 484 119 697 152 965 152 352 0 570 -89 693 -282 19 -29 71 -126 116 -215
l81 -163 0 -3867 c-1 -3911 -10 -5864 -30 -6183 -13 -215 -30 -329 -76 -529
-187 -805 -535 -1264 -1125 -1484 -193 -72 -401 -115 -684 -141 -228 -21 -300
-34 -330 -58 -23 -18 -25 -26 -25 -99 l0 -79 4000 0 4000 0 0 83 c0 54 -5 90
-13 101 -18 24 -84 35 -219 35 -296 2 -648 86 -923 221 -210 102 -361 217
-491 371 -294 347 -453 798 -534 1509 -58 521 -64 1038 -57 5505 l6 3740 75
255 c102 349 140 455 230 641 156 326 357 566 621 744 102 68 332 178 472 224
438 146 895 145 1393 -1 340 -99 832 -341 1145 -561 192 -135 313 -236 590
-491 147 -136 287 -251 334 -276 22 -11 27 -8 84 51 85 90 208 234 382 449
476 590 1103 1320 1795 2090 605 674 690 769 801 900 136 161 184 225 205 275
14 34 14 39 -2 56 -22 24 -76 24 -129 0 -22 -10 -98 -54 -170 -98 -743 -457
-1431 -576 -2230 -386 -428 101 -1361 539 -2315 1086 -208 119 -417 227 -482
250 l-47 16 -30 -37 c-41 -53 -133 -201 -246 -397 -406 -705 -1005 -1565
-1425 -2045 -356 -406 -966 -1010 -1020 -1010 -5 0 -11 4 -14 9 -19 30 -28
515 -36 1881 -10 1638 -15 1810 -55 1810 -7 0 -38 -23 -68 -50z"/>
<path d="M51760 17080 c-374 -43 -1496 -395 -2315 -725 -534 -215 -961 -410
-1605 -732 -801 -400 -1588 -832 -2552 -1399 -606 -357 -747 -463 -1108 -830
-317 -323 -444 -510 -535 -789 -53 -160 -77 -300 -77 -450 -1 -151 13 -250 54
-390 145 -491 595 -878 1133 -971 125 -22 404 -14 530 15 508 118 968 428
1179 796 66 117 103 228 115 354 7 63 11 436 11 968 l0 864 125 182 c127 186
227 304 371 438 452 421 1214 832 1764 953 393 86 1061 99 1520 30 440 -66
920 -278 1280 -565 277 -221 461 -447 621 -762 l70 -138 -11 -1877 c-6 -1032
-14 -1880 -18 -1884 -8 -8 -431 -239 -1202 -655 -311 -168 -691 -375 -845
-461 -1625 -902 -3630 -2131 -4297 -2634 -457 -344 -1219 -1086 -1488 -1449
-209 -282 -397 -649 -485 -949 -81 -274 -100 -428 -100 -795 1 -311 11 -446
56 -705 116 -672 409 -1213 925 -1709 509 -489 989 -710 1729 -796 99 -11 250
-15 642 -15 557 0 648 6 955 65 924 179 1724 586 2578 1313 418 356 1012 1031
1378 1567 106 156 138 193 151 179 17 -16 31 -749 31 -1619 0 -779 11 -1220
30 -1313 9 -41 16 -52 31 -52 27 0 298 140 579 300 1385 787 2866 1423 4222
1814 86 25 260 72 387 106 248 64 424 118 509 156 50 22 52 24 51 61 -1 21 -4
51 -8 68 -11 50 -51 56 -456 65 -381 9 -496 21 -662 65 -533 142 -943 577
-1113 1181 -78 277 -94 454 -110 1179 -13 600 -13 4128 1 6325 16 2806 -3
3440 -117 3802 -52 163 -122 266 -295 434 -122 118 -205 183 -364 287 -376
245 -1363 774 -1671 895 -236 93 -494 157 -749 187 -161 19 -726 29 -845 15z
m566 -11340 c-3 -993 -9 -1761 -15 -1840 -11 -146 -24 -198 -86 -320 -262
-521 -1016 -1055 -1785 -1263 -211 -58 -551 -112 -890 -143 -229 -21 -718 -24
-865 -6 -731 93 -1363 568 -1731 1302 -79 159 -148 333 -174 442 -28 119 -40
303 -40 607 0 306 13 525 35 637 20 99 90 276 164 419 172 329 380 596 737
945 643 628 1385 1138 2959 2035 892 508 1116 641 1465 872 l215 142 8 -1062
c4 -584 5 -1829 3 -2767z"/>
<path d="M86380 16670 c-433 -13 -690 -35 -1015 -85 -1742 -271 -2956 -881
-4125 -2071 -774 -788 -1359 -1699 -1776 -2763 -283 -720 -495 -1593 -556
-2281 -18 -200 -18 -1344 0 -1610 41 -611 81 -905 197 -1430 597 -2702 2144
-4762 4300 -5726 1424 -636 2953 -796 5004 -523 874 116 1419 275 2036 593
918 474 1685 1120 2285 1926 413 555 746 1192 979 1875 121 351 182 600 167
678 -9 49 -69 89 -142 95 -48 4 -54 2 -92 -32 -44 -40 -88 -118 -152 -271
-289 -685 -858 -1337 -1600 -1832 -347 -232 -748 -432 -1125 -562 -1306 -451
-3049 -372 -4388 200 -653 279 -1268 703 -1772 1221 -900 924 -1520 2172
-1834 3690 -107 516 -130 757 -152 1583 -16 628 -1 1173 41 1471 11 76 20 142
20 147 0 4 2466 7 5480 7 l5480 0 0 26 c0 108 -77 631 -130 889 -262 1264
-714 2131 -1544 2961 -408 407 -819 715 -1296 971 -688 370 -1982 744 -2840
822 -328 30 -1013 45 -1450 31z m975 -680 c197 -13 460 -45 581 -71 184 -39
456 -143 687 -261 430 -220 785 -538 1058 -944 220 -328 396 -727 468 -1059
52 -237 72 -570 52 -885 -26 -422 -77 -568 -304 -859 -131 -167 -234 -226
-478 -275 -440 -88 -1207 -117 -3969 -146 -531 -6 -1361 -15 -1844 -20 -483
-6 -881 -9 -882 -7 -7 6 154 550 211 716 407 1178 1150 2273 2060 3033 497
416 1012 684 1450 757 177 30 615 40 910 21z"/>
<path d="M64735 16663 c-949 -47 -2041 -389 -2985 -933 -1713 -987 -2991
-2551 -3640 -4455 -170 -501 -334 -1148 -394 -1565 -48 -332 -71 -866 -63
-1500 10 -793 38 -1087 158 -1669 301 -1452 861 -2698 1698 -3776 595 -766
1376 -1378 2431 -1905 942 -471 1936 -736 3009 -801 217 -13 866 -7 1046 10
1012 97 1842 320 2623 706 682 337 1289 780 1853 1352 355 361 613 680 893
1105 319 486 540 934 767 1555 l91 247 -29 24 c-33 27 -219 122 -238 122 -16
0 -77 -81 -251 -330 -140 -202 -274 -373 -410 -526 -391 -441 -813 -818 -1164
-1041 -335 -212 -852 -469 -1221 -607 -446 -165 -1137 -247 -1979 -233 -603
10 -930 49 -1385 164 -1277 321 -2344 1086 -3090 2213 -642 970 -1051 2215
-1159 3525 -38 455 -45 1228 -16 1700 43 691 147 1276 344 1925 300 991 740
1832 1332 2545 141 170 494 522 659 657 622 508 1276 808 2000 918 176 27 518
38 661 21 747 -88 1346 -549 1744 -1342 234 -465 354 -1082 337 -1734 -8 -322
-30 -493 -112 -881 l-43 -205 74 -141 c101 -193 166 -279 329 -444 282 -283
522 -421 860 -493 380 -82 809 -33 1140 130 215 106 551 400 730 637 292 387
374 1065 211 1727 -151 607 -432 1076 -947 1580 -817 799 -2037 1355 -3518
1605 -562 95 -959 121 -1776 118 -280 -1 -537 -3 -570 -5z"/>
</g>
</svg>
