<?xml version="1.0" standalone="no"?>
<!DOCTYPE svg PUBLIC "-//W3C//DTD SVG 20010904//EN"
 "http://www.w3.org/TR/2001/REC-SVG-20010904/DTD/svg10.dtd">
<svg version="1.0" xmlns="http://www.w3.org/2000/svg"
 width="2554.000000pt" height="8847.000000pt" viewBox="0 0 2554.000000 8847.000000"
 preserveAspectRatio="xMidYMid meet">

<g transform="translate(0.000000,8847.000000) scale(0.100000,-0.100000)"
fill="#000000" stroke="none">
<path d="M8732 88050 c-42 -39 -26 -81 120 -320 210 -343 311 -570 388 -874
65 -256 75 -344 75 -656 -1 -240 -4 -292 -24 -409 -106 -617 -376 -1241 -1081
-2491 -221 -392 -344 -626 -335 -640 12 -20 235 -161 405 -256 717 -400 1466
-920 1990 -1379 562 -493 1100 -1026 1100 -1091 0 -40 -121 -44 -1650 -53
-1403 -10 -2025 -22 -2044 -41 -18 -18 74 -107 309 -299 405 -330 886 -809
1286 -1281 884 -1043 1657 -2321 2132 -3521 46 -118 110 -284 141 -369 67
-186 112 -276 147 -303 23 -17 31 -18 62 -8 74 25 71 74 -29 476 -118 476
-148 677 -148 1010 -1 311 19 398 123 535 80 107 235 208 416 273 200 71 92
69 4570 74 5495 6 5640 3 6232 -142 707 -174 1188 -562 1376 -1110 83 -243
143 -557 157 -828 5 -97 15 -187 21 -198 10 -20 17 -21 86 -15 41 3 79 8 84
12 13 8 12 7991 -1 7999 -6 4 -44 9 -84 12 -68 5 -75 4 -85 -16 -7 -12 -16
-103 -21 -204 -23 -465 -159 -915 -363 -1203 -384 -541 -1116 -777 -2552 -824
-1202 -40 -7067 -39 -7965 0 -225 10 -433 35 -703 85 -472 87 -889 296 -1188
594 -286 286 -458 637 -525 1066 -23 151 -23 466 0 635 96 710 466 1421 1082
2084 259 278 344 380 344 409 0 22 -126 136 -355 320 -672 542 -1494 1250
-2407 2075 -753 679 -881 792 -977 856 -61 41 -79 44 -109 16z"/>
<path d="M19925 73820 c-11 -17 -45 -178 -45 -211 0 -60 26 -81 187 -149 535
-228 952 -515 1373 -946 516 -528 903 -1167 1146 -1889 133 -397 201 -718 236
-1115 18 -200 18 -1178 0 -1395 -61 -745 -288 -1520 -644 -2205 -273 -524
-577 -939 -984 -1342 -1193 -1181 -3002 -1917 -5009 -2038 -229 -14 -841 -14
-1050 0 -224 14 -791 59 -842 66 l-43 5 0 5479 0 5479 -32 -5 c-18 -2 -125
-13 -238 -24 -473 -47 -863 -124 -1285 -255 -1431 -444 -2614 -1406 -3278
-2665 -336 -639 -673 -1698 -786 -2475 -69 -470 -85 -821 -78 -1630 6 -690 10
-751 72 -1152 230 -1480 684 -2568 1471 -3528 242 -296 653 -723 919 -954 836
-729 1780 -1271 2839 -1630 1265 -429 2556 -555 3946 -385 1681 205 3311 833
4509 1735 1313 988 2219 2355 2624 3954 101 398 169 789 201 1165 105 1205
-61 2955 -375 3935 -315 986 -1127 2108 -2084 2881 -702 566 -1531 978 -2505
1244 -168 46 -238 61 -245 50z m-7311 -3701 c198 -21 332 -70 532 -196 289
-181 375 -295 439 -578 69 -312 93 -811 125 -2540 30 -1659 44 -3307 32 -3725
-11 -362 -18 -403 -64 -408 -120 -14 -1124 351 -1537 557 -385 194 -846 494
-1226 801 -492 397 -935 868 -1223 1299 -160 239 -346 657 -418 938 -31 122
-36 159 -44 334 -15 340 15 948 60 1216 63 365 296 848 585 1206 462 573 1172
978 1902 1083 219 31 601 37 837 13z"/>
<path d="M8871 58634 c-37 -47 -35 -53 124 -299 90 -140 226 -412 284 -570 85
-229 143 -461 178 -715 24 -175 24 -550 0 -715 -64 -434 -126 -610 -477 -1350
-602 -1270 -670 -1591 -671 -3190 -1 -689 12 -860 98 -1300 175 -906 494
-1682 954 -2327 276 -386 656 -778 1025 -1055 684 -516 1532 -834 2408 -904
191 -15 634 -7 816 16 1260 154 2254 795 3124 2015 394 552 704 1152 1031
1995 107 275 144 355 165 355 106 0 1636 -1155 2769 -2090 920 -759 1563
-1333 2666 -2380 960 -910 960 -911 985 -845 21 55 -15 149 -122 320 -276 441
-468 906 -507 1230 -58 481 80 869 624 1745 277 446 445 747 576 1030 391 846
528 1594 529 2868 0 643 -36 1017 -150 1577 -430 2097 -1543 3636 -3065 4238
-457 181 -828 245 -1350 234 -403 -8 -708 -56 -1092 -173 -1019 -309 -2030
-1162 -2873 -2425 -423 -634 -771 -1302 -1126 -2162 -119 -286 -204 -477 -214
-477 -55 0 -1005 699 -1975 1454 -1231 958 -2618 2127 -4059 3421 -421 378
-558 488 -624 501 -24 5 -33 1 -51 -22z m13549 -3749 c537 -66 1044 -300 1453
-669 410 -371 751 -930 865 -1421 71 -302 89 -941 37 -1292 -44 -294 -192
-657 -390 -953 -253 -380 -587 -667 -1010 -871 -235 -113 -465 -184 -685 -211
-143 -18 -786 -18 -935 0 -705 84 -1361 330 -2165 810 -354 211 -1108 742
-1335 939 -72 63 -80 73 -79 104 2 37 105 334 199 569 599 1502 1567 2510
2756 2870 169 51 435 105 604 124 181 19 530 20 685 1z m-10775 -485 c485 -40
801 -121 1300 -335 462 -198 792 -379 1254 -687 392 -262 745 -511 960 -677
69 -53 129 -99 133 -102 10 -6 -89 -265 -177 -464 -176 -399 -392 -769 -639
-1100 -172 -231 -453 -533 -665 -717 -569 -494 -1214 -775 -1924 -839 -185
-17 -554 -6 -732 21 -535 81 -1012 286 -1405 603 -106 86 -303 285 -392 397
-194 244 -350 535 -441 826 -59 187 -82 428 -74 784 8 352 38 530 133 772 264
675 822 1185 1547 1417 174 55 314 82 547 104 82 8 465 6 575 -3z"/>
<path d="M8884 45533 c-22 -24 -25 -35 -21 -71 5 -44 19 -69 161 -292 125
-196 250 -470 320 -702 100 -331 146 -784 117 -1163 -32 -426 -96 -613 -516
-1509 -259 -554 -405 -938 -515 -1360 -50 -192 -65 -281 -84 -497 -50 -563
-58 -1576 -16 -2064 44 -506 269 -1359 500 -1900 163 -381 408 -788 674 -1118
650 -808 1544 -1394 2497 -1636 500 -127 1263 -174 1728 -105 660 97 1298 368
1850 785 197 148 309 246 512 449 511 510 833 980 1270 1853 192 383 255 528
446 1022 51 132 109 255 121 255 55 0 907 -619 1652 -1199 1354 -1054 2399
-1959 3765 -3261 540 -515 889 -829 963 -869 28 -15 62 13 62 50 0 45 -19 82
-122 240 -443 672 -611 1288 -497 1817 64 297 167 498 701 1372 349 572 589
1067 732 1508 198 609 277 1314 263 2332 -12 826 -93 1377 -309 2105 -337
1134 -837 2024 -1501 2671 -509 497 -1085 835 -1767 1037 -303 90 -448 107
-925 107 -478 0 -676 -21 -953 -100 -840 -238 -1347 -552 -2077 -1285 -709
-713 -1181 -1391 -1705 -2450 -190 -385 -326 -680 -442 -965 -113 -275 -167
-403 -177 -419 -8 -12 -21 -8 -72 23 -304 181 -1960 1443 -2954 2250 -935 759
-1634 1360 -2860 2455 -236 211 -482 429 -545 483 -112 96 -223 178 -242 178
-5 0 -20 -12 -34 -27z m13756 -3797 c264 -57 621 -206 878 -367 232 -144 469
-350 644 -559 178 -211 352 -509 461 -785 147 -371 196 -688 184 -1165 -12
-454 -66 -719 -210 -1039 -242 -535 -648 -962 -1165 -1225 -403 -205 -700
-266 -1285 -266 -383 0 -544 18 -842 92 -572 142 -1195 421 -1835 822 -519
324 -1242 848 -1290 933 -14 25 -6 53 122 398 365 982 802 1661 1458 2263 236
217 490 402 735 536 314 172 793 346 1032 375 43 5 294 8 558 6 398 -2 493 -5
555 -19z m-10904 -456 c705 -56 1596 -438 2624 -1123 355 -237 736 -518 861
-636 l74 -68 -34 -89 c-75 -199 -311 -692 -449 -934 -123 -219 -302 -479 -474
-692 -566 -700 -1308 -1169 -2097 -1322 -258 -51 -359 -60 -646 -60 -289 0
-406 11 -639 60 -832 176 -1513 682 -1877 1397 -124 243 -183 419 -216 636
-26 170 -26 747 0 909 69 437 345 944 691 1269 243 228 578 430 882 531 300
100 883 155 1300 122z"/>
<path d="M19931 32391 c-22 -22 -51 -139 -51 -205 0 -37 5 -49 24 -61 13 -9
124 -61 247 -116 235 -105 335 -156 484 -247 474 -290 972 -779 1347 -1322
231 -334 467 -811 603 -1215 89 -267 169 -597 204 -840 40 -276 46 -418 46
-1000 -1 -688 -16 -887 -96 -1290 -310 -1551 -1167 -2824 -2488 -3699 -763
-505 -1715 -891 -2702 -1095 -701 -145 -1485 -208 -2249 -182 -296 11 -921 46
-1007 57 l-43 5 0 5476 0 5476 -147 -6 c-389 -15 -1115 -161 -1586 -318 -1152
-384 -2146 -1136 -2804 -2119 -414 -620 -772 -1498 -972 -2386 -154 -685 -194
-1111 -194 -2069 0 -693 18 -959 93 -1393 90 -514 223 -1073 340 -1422 464
-1389 1522 -2717 2890 -3625 560 -373 1301 -724 2065 -981 715 -240 1261 -351
2040 -415 210 -17 874 -23 1120 -10 1004 53 1960 241 2895 568 2014 705 3546
1995 4403 3709 428 856 696 1858 756 2834 66 1057 -55 2447 -300 3435 -302
1220 -1398 2707 -2559 3470 -616 405 -1498 806 -2123 965 -178 45 -209 48
-236 21z m-7148 -3704 c145 -51 425 -201 561 -301 310 -227 341 -581 387
-4406 16 -1368 17 -2527 1 -2625 -18 -113 -20 -114 -144 -86 -397 89 -1299
470 -1813 765 -1192 684 -2135 1704 -2446 2646 -100 304 -119 495 -101 994 19
507 43 708 113 936 114 376 310 734 567 1040 96 115 296 310 412 403 336 268
792 499 1171 590 252 62 416 75 859 73 l355 -1 78 -28z"/>
<path d="M15560 16080 c-42 -10 -60 -33 -60 -80 0 -27 7 -43 28 -62 33 -31 70
-44 287 -103 770 -210 1978 -613 2700 -903 1966 -787 3331 -1714 4191 -2847
507 -668 867 -1449 1067 -2315 98 -421 109 -609 127 -2105 5 -467 13 -1042 16
-1277 l7 -428 -6774 0 c-6716 0 -11304 11 -12324 30 -472 8 -551 12 -725 34
-1236 159 -1786 547 -2004 1412 -55 218 -82 405 -94 638 -10 189 -11 190 -163
160 l-27 -5 -7 -1592 c-8 -1805 -1 -6508 10 -6549 8 -30 46 -48 105 -48 65 0
73 19 82 193 12 240 46 449 114 696 135 493 395 814 833 1032 208 103 425 173
723 233 245 50 522 86 743 96 556 26 2700 35 8790 35 6092 0 8235 -9 8790 -35
394 -18 829 -95 1165 -206 170 -56 444 -192 570 -281 194 -140 367 -342 474
-558 131 -262 192 -508 235 -940 30 -300 33 -305 153 -305 l78 0 0 5268 c-1
6915 -14 9601 -48 9762 l-8 35 -134 18 c-856 111 -7986 918 -8845 1001 -22 2
-56 0 -75 -4z"/>
</g>
</svg>
