<?xml version="1.0" standalone="no"?>
<!DOCTYPE svg PUBLIC "-//W3C//DTD SVG 20010904//EN"
 "http://www.w3.org/TR/2001/REC-SVG-20010904/DTD/svg10.dtd">
<svg version="1.0" xmlns="http://www.w3.org/2000/svg"
 width="772.000000pt" height="772.000000pt" viewBox="0 0 772.000000 772.000000"
 preserveAspectRatio="xMidYMid meet">

<g transform="translate(0.000000,772.000000) scale(0.100000,-0.100000)"
fill="#000000" stroke="none">
<path d="M840 7685 l0 -35 83 0 c183 0 363 -37 497 -103 217 -106 328 -301
378 -665 14 -105 16 -409 19 -2872 4 -2698 1 -3027 -27 -3210 -15 -96 -31
-160 -40 -160 -4 0 -59 34 -121 76 -623 416 -1093 1113 -1489 2209 l-58 160
-40 3 c-35 3 -40 0 -36 -15 2 -10 101 -693 219 -1518 118 -825 218 -1512 221
-1527 l6 -28 3408 0 3408 0 6 28 c3 15 103 702 221 1527 118 825 217 1508 219
1518 4 15 -1 18 -36 15 l-40 -3 -58 -160 c-349 -966 -772 -1646 -1280 -2057
-93 -75 -315 -228 -330 -228 -9 0 -25 64 -40 160 -28 183 -31 512 -27 3210 4
2991 1 2848 57 3077 54 219 171 377 340 460 134 66 314 103 497 103 l83 0 0
35 0 35 -3020 0 -3020 0 0 -35z m3118 -136 c199 -96 316 -280 366 -574 34
-197 36 -396 36 -3572 l0 -3163 -500 0 -500 0 0 3163 c0 3176 2 3375 36 3572
50 293 167 477 365 574 46 22 90 41 98 41 8 0 52 -18 99 -41z"/>
</g>
</svg>
