<?xml version="1.0" standalone="no"?>
<!DOCTYPE svg PUBLIC "-//W3C//DTD SVG 20010904//EN"
 "http://www.w3.org/TR/2001/REC-SVG-20010904/DTD/svg10.dtd">
<svg version="1.0" xmlns="http://www.w3.org/2000/svg"
 width="4542.000000pt" height="613.000000pt" viewBox="0 0 4542.000000 613.000000"
 preserveAspectRatio="xMidYMid meet">

<g transform="translate(0.000000,613.000000) scale(0.100000,-0.100000)"
fill="#000000" stroke="none">
<path d="M41250 6082 c-58 -78 -298 -314 -410 -402 -237 -188 -546 -365 -811
-465 -108 -41 -126 -50 -122 -66 3 -11 8 -19 12 -19 3 0 60 14 126 31 144 37
271 44 321 17 43 -24 81 -71 96 -121 10 -33 13 -471 13 -2162 l0 -2120 -23
-105 c-60 -273 -185 -386 -448 -407 -79 -6 -85 -8 -82 -27 l3 -21 960 0 960 0
3 21 c3 19 -3 22 -77 28 -259 21 -380 137 -438 419 -16 76 -17 292 -20 2765
-3 2114 -6 2682 -16 2682 -6 0 -28 -22 -47 -48z"/>
<path d="M29185 6019 c-223 -27 -407 -211 -433 -434 -22 -186 53 -362 198
-469 91 -67 155 -89 280 -94 116 -4 188 13 279 66 104 61 203 196 230 312 13
58 13 182 0 240 -6 25 -24 72 -40 105 -94 192 -297 300 -514 274z"/>
<path d="M17 5693 c-4 -3 -7 -15 -7 -25 0 -15 8 -18 43 -18 77 -1 192 -27 253
-58 145 -73 215 -215 243 -491 15 -143 15 -4139 0 -4282 -38 -379 -166 -529
-472 -555 -72 -6 -77 -8 -77 -30 l0 -24 1805 0 c1435 0 1807 3 1810 13 6 16
245 2124 245 2160 0 20 -5 27 -20 27 -14 0 -22 -11 -30 -42 -48 -184 -150
-491 -222 -673 -306 -765 -686 -1148 -1263 -1276 -91 -20 -134 -22 -497 -26
l-398 -5 0 2305 c0 1527 4 2340 10 2408 28 276 99 418 244 491 61 31 176 57
254 58 39 0 43 2 40 23 l-3 22 -976 3 c-536 1 -979 -1 -982 -5z"/>
<path d="M22810 5676 c0 -22 5 -24 75 -30 253 -23 374 -138 437 -411 l22 -100
4 -2105 c2 -1534 0 -2136 -8 -2220 -28 -274 -103 -419 -255 -494 -60 -29 -177
-55 -252 -56 -39 0 -43 -2 -43 -25 l0 -25 640 0 640 0 0 24 c0 22 -5 24 -80
30 -161 13 -274 68 -342 166 -72 102 -103 225 -118 472 -12 203 -14 3998 -1
3998 4 0 18 -26 29 -57 334 -922 1316 -3686 1335 -3758 33 -124 54 -255 63
-385 8 -110 17 -123 49 -63 33 62 130 187 207 269 195 205 502 395 799 496 71
23 129 48 129 54 0 7 -32 14 -82 18 -46 4 -111 14 -146 21 -121 28 -269 124
-259 169 7 37 1229 3431 1238 3440 13 15 12 -4155 -2 -4285 -38 -380 -165
-529 -471 -555 -73 -6 -78 -8 -78 -30 l0 -24 995 0 995 0 0 24 c0 22 -5 24
-77 30 -306 26 -434 176 -472 555 -15 143 -15 4139 0 4282 28 276 98 418 243
491 61 31 176 57 254 58 39 0 43 2 40 23 l-3 22 -683 3 -682 2 -10 -22 c-6
-13 -318 -880 -694 -1928 -376 -1047 -687 -1905 -692 -1907 -6 -2 -312 864
-681 1924 l-671 1928 -696 3 -696 2 0 -24z"/>
<path d="M19096 4220 c-282 -349 -774 -691 -1231 -855 -91 -33 -101 -40 -87
-63 7 -10 34 -6 128 19 144 37 279 44 331 16 42 -22 68 -57 90 -120 17 -49 18
-118 18 -1212 0 -1196 -1 -1238 -40 -1391 -36 -140 -115 -246 -222 -299 -58
-28 -176 -54 -251 -55 -39 0 -43 -2 -40 -22 l3 -23 960 0 960 0 3 23 c3 20 -1
22 -41 22 -78 0 -195 28 -257 61 -156 83 -220 238 -240 577 -13 221 -13 1899
0 2022 6 52 17 122 25 155 115 460 625 516 1049 115 46 -44 88 -80 93 -80 5 0
39 37 75 83 112 140 312 374 487 566 226 250 233 259 226 271 -10 16 -21 12
-81 -26 -130 -83 -264 -120 -405 -111 -156 10 -328 79 -652 263 -81 46 -151
84 -156 84 -5 0 -28 -35 -52 -77 -66 -121 -154 -257 -248 -383 -89 -120 -334
-380 -357 -380 -12 0 -14 78 -14 445 0 252 -4 445 -9 445 -5 0 -34 -31 -65
-70z"/>
<path d="M29672 4208 c-311 -367 -772 -684 -1229 -848 -85 -30 -92 -34 -82
-52 8 -14 17 -18 32 -14 222 64 362 77 432 40 30 -16 47 -35 70 -79 l30 -59 3
-1150 c2 -765 0 -1186 -8 -1257 -35 -352 -166 -500 -462 -525 -73 -6 -78 -8
-78 -30 l0 -24 960 0 960 0 0 25 c0 22 -4 25 -37 25 -127 0 -252 43 -326 110
-99 90 -146 220 -166 455 -7 76 -11 727 -11 1793 0 972 -4 1672 -9 1672 -5 0
-40 -37 -79 -82z"/>
<path d="M31650 4219 c-89 -114 -308 -320 -464 -436 -233 -173 -454 -298 -701
-394 -71 -27 -138 -53 -148 -57 -15 -6 -16 -10 -5 -25 12 -16 20 -15 133 14
155 40 270 44 332 11 32 -17 48 -35 70 -79 l28 -58 0 -1215 c0 -1212 0 -1215
-22 -1313 -59 -267 -186 -382 -443 -403 -75 -6 -80 -8 -80 -30 l0 -24 960 0
960 0 0 25 c0 22 -4 25 -37 25 -127 0 -252 43 -326 110 -100 92 -148 223 -167
465 -7 85 -10 483 -8 1140 l3 1010 23 80 c49 176 125 281 245 340 160 78 330
72 526 -21 112 -53 191 -108 291 -203 41 -39 80 -70 86 -69 7 2 52 53 100 113
123 153 287 344 506 586 156 173 185 209 173 219 -12 10 -24 6 -62 -18 -186
-119 -365 -148 -571 -92 -92 25 -330 139 -521 249 -68 40 -129 70 -135 68 -6
-3 -32 -43 -59 -90 -75 -135 -215 -342 -314 -462 -91 -111 -264 -285 -283
-285 -7 0 -10 145 -10 445 0 350 -3 445 -12 444 -7 0 -38 -32 -68 -70z"/>
<path d="M35190 4173 c-106 -19 -352 -97 -535 -171 -274 -110 -596 -275 -1005
-516 -129 -75 -170 -106 -246 -181 -100 -99 -136 -160 -155 -258 -17 -92 10
-191 71 -261 83 -94 199 -137 317 -118 130 22 259 107 307 204 26 51 26 55 26
284 l0 232 42 62 c81 122 301 263 483 311 100 27 303 29 412 6 184 -40 346
-155 419 -299 l24 -48 -2 -452 -3 -451 -105 -57 c-58 -32 -188 -102 -290 -157
-386 -209 -945 -548 -1127 -684 -120 -90 -315 -282 -372 -367 -102 -152 -137
-274 -128 -446 12 -222 78 -377 222 -521 147 -148 285 -202 535 -212 347 -13
650 108 941 376 86 80 220 237 282 332 18 27 35 49 40 49 4 0 7 -162 7 -360 0
-289 3 -360 13 -360 7 0 65 30 128 66 363 209 773 380 1124 469 72 18 130 38
129 44 -1 6 -2 17 -2 24 -2 11 -27 14 -109 13 -126 0 -196 17 -269 67 -94 65
-153 170 -175 311 -13 84 -16 487 -10 1626 6 989 4 1009 -87 1103 -52 54 -95
83 -277 183 -189 103 -244 127 -347 148 -71 15 -218 19 -278 9z m150 -3193
c-40 -148 -270 -315 -495 -359 -146 -29 -323 -37 -411 -18 -184 39 -332 175
-407 373 -19 51 -22 78 -22 194 1 116 4 143 23 191 49 123 141 237 301 371
153 128 338 246 721 461 74 42 171 100 215 129 l80 53 3 -679 c1 -438 -1 -692
-8 -716z"/>
<path d="M9045 4125 c-174 -28 -343 -79 -470 -142 -297 -149 -520 -420 -601
-730 -32 -121 -43 -315 -24 -430 44 -274 204 -514 472 -706 107 -77 343 -199
477 -247 50 -18 94 -37 97 -42 6 -9 -198 -287 -371 -503 -232 -292 -439 -527
-732 -832 -101 -106 -182 -197 -178 -203 10 -16 23 -12 68 19 130 89 270 136
382 129 93 -7 159 -35 335 -145 330 -206 499 -260 845 -270 278 -8 472 18 706
97 431 144 709 402 815 755 24 79 27 107 27 230 0 112 -4 156 -21 217 -57 207
-133 332 -316 513 -138 137 -278 241 -463 342 -105 58 -276 139 -378 179 -38
15 -73 30 -77 33 -9 8 291 406 509 677 185 230 361 436 582 683 221 247 213
237 197 250 -11 9 -24 5 -59 -19 -124 -83 -254 -123 -407 -123 -139 -1 -199
16 -400 112 -168 80 -270 118 -395 147 -100 23 -497 28 -620 9z m446 -131
c185 -55 322 -185 386 -364 31 -89 43 -266 24 -373 -34 -195 -156 -437 -358
-709 -36 -49 -69 -88 -74 -88 -19 0 -190 80 -263 124 -218 130 -369 303 -438
501 -134 390 44 792 402 906 73 24 245 25 321 3z m-223 -2260 c214 -80 366
-175 502 -313 111 -113 174 -213 222 -351 30 -88 32 -104 32 -230 0 -122 -2
-142 -28 -215 -75 -216 -241 -369 -466 -431 -100 -28 -283 -25 -380 4 -206 64
-361 225 -415 432 -21 78 -23 248 -6 335 35 175 118 359 251 557 86 130 175
248 186 248 2 0 49 -16 102 -36z"/>
<path d="M12194 4125 c-335 -51 -601 -179 -800 -386 -315 -328 -397 -825 -199
-1208 139 -270 440 -504 840 -656 55 -21 104 -41 108 -45 13 -12 -291 -415
-533 -705 -170 -205 -322 -374 -551 -614 -107 -112 -195 -207 -197 -212 -9
-23 30 -17 69 9 71 48 183 101 251 118 142 37 246 6 477 -140 304 -192 498
-253 837 -263 213 -6 336 4 513 43 529 118 906 426 1012 829 44 168 27 382
-44 555 -142 348 -524 664 -1071 887 -61 25 -114 48 -119 52 -9 9 277 390 499
666 181 225 464 555 667 780 114 126 133 152 122 164 -11 11 -20 8 -60 -19
-140 -96 -333 -143 -495 -120 -102 14 -152 32 -317 111 -292 140 -376 160
-688 164 -161 3 -257 0 -321 -10z m439 -130 c205 -53 364 -223 413 -441 24
-108 15 -277 -20 -397 -31 -103 -93 -240 -161 -352 -43 -71 -173 -260 -224
-324 l-19 -24 -58 23 c-321 127 -560 351 -649 607 -93 267 -34 563 150 748 73
74 157 125 255 156 70 23 233 25 313 4z m-215 -2261 c460 -172 733 -482 758
-859 8 -121 -13 -225 -67 -335 -79 -161 -248 -297 -429 -346 -81 -22 -271 -25
-350 -5 -226 56 -395 225 -451 451 -8 33 -13 103 -12 175 1 199 63 386 202
618 69 114 230 337 244 337 4 0 52 -16 105 -36z"/>
<path d="M5810 4069 c-109 -13 -306 -55 -413 -89 -343 -111 -669 -369 -890
-705 -129 -196 -247 -485 -295 -720 -76 -369 -45 -794 85 -1185 238 -716 768
-1173 1469 -1265 260 -34 646 -9 934 60 287 69 641 326 828 602 106 156 216
402 247 550 6 29 4 32 -25 38 -17 4 -34 4 -37 2 -3 -3 -20 -39 -37 -79 -46
-105 -107 -191 -205 -288 -173 -171 -388 -282 -636 -327 -119 -22 -394 -22
-525 0 -549 93 -950 457 -1139 1033 -89 271 -120 553 -97 887 l8 127 1314 0
1314 0 0 39 c0 51 -26 197 -52 296 -82 309 -274 581 -529 751 -201 134 -477
231 -762 269 -128 16 -428 19 -557 4z m555 -174 c200 -55 363 -191 456 -380
55 -114 72 -189 73 -325 1 -111 0 -118 -32 -180 -17 -36 -43 -78 -57 -94 -58
-64 -167 -72 -1042 -82 -631 -7 -663 -6 -663 11 0 41 75 240 140 370 170 342
454 615 714 686 59 16 95 18 211 15 87 -3 163 -10 200 -21z"/>
<path d="M15790 4073 c-111 -11 -258 -39 -368 -69 -289 -79 -505 -207 -728
-428 -309 -308 -510 -722 -569 -1171 -72 -553 92 -1197 416 -1628 281 -374
688 -609 1162 -672 306 -40 802 5 1048 95 181 66 385 203 544 364 155 157 262
322 346 531 31 78 82 246 76 252 -2 1 -18 6 -35 9 -29 6 -32 4 -49 -37 -131
-328 -467 -585 -858 -656 -120 -22 -395 -22 -525 0 -207 35 -397 110 -565 222
-458 306 -730 974 -675 1663 l13 162 1315 0 1315 0 -7 73 c-33 341 -178 650
-410 875 -153 148 -310 239 -541 315 -244 81 -417 107 -685 105 -102 -1 -201
-3 -220 -5z m515 -178 c199 -55 365 -194 455 -380 49 -101 72 -196 73 -310 1
-124 -8 -165 -53 -234 -75 -116 -91 -119 -680 -131 -250 -5 -591 -9 -757 -10
-282 0 -303 1 -303 18 0 33 81 257 125 349 116 238 316 475 516 609 67 44 170
88 244 104 64 14 311 4 380 -15z"/>
<path d="M38240 4069 c-372 -47 -746 -237 -1034 -525 -295 -295 -484 -671
-563 -1119 -25 -143 -25 -517 0 -670 65 -396 208 -734 432 -1020 143 -182 325
-324 577 -451 430 -216 933 -255 1393 -107 472 152 866 537 1044 1021 17 46
31 85 31 87 0 5 -56 35 -64 35 -3 0 -33 -42 -68 -93 -80 -118 -239 -277 -349
-350 -107 -71 -271 -150 -368 -176 -163 -45 -492 -53 -678 -16 -518 101 -890
482 -1038 1060 -47 182 -65 342 -65 564 0 274 28 460 101 685 181 553 558 913
995 951 224 20 407 -90 524 -316 81 -156 107 -392 66 -594 l-19 -90 26 -50
c32 -64 122 -149 189 -180 112 -51 244 -51 356 0 61 28 161 119 197 180 91
156 64 422 -62 612 -196 297 -592 500 -1091 558 -135 16 -422 18 -532 4z"/>
<path d="M43325 4064 c-428 -58 -726 -197 -1009 -473 -313 -305 -514 -711
-582 -1171 -22 -156 -15 -501 15 -675 118 -690 486 -1226 1016 -1480 359 -172
752 -215 1280 -139 172 25 289 59 412 118 385 187 662 495 811 902 16 43 35
105 43 137 11 50 10 60 -2 68 -36 23 -53 10 -81 -59 -99 -244 -355 -472 -646
-576 -331 -118 -780 -92 -1109 65 -447 213 -741 656 -840 1264 -19 119 -25
497 -10 608 l8 57 1316 0 1315 0 -6 58 c-21 179 -69 361 -132 499 -118 260
-359 505 -618 627 -162 77 -402 146 -592 171 -142 19 -450 18 -589 -1z m600
-174 c207 -66 346 -184 441 -375 58 -118 77 -208 72 -350 -4 -119 -17 -158
-80 -237 -60 -77 -136 -84 -1055 -94 l-663 -7 21 74 c76 275 228 537 424 734
150 149 283 235 424 270 87 23 325 14 416 -15z"/>
</g>
</svg>
